<svg xmlns="http://www.w3.org/2000/svg" viewBox="0 0 400 300" fill="none"><circle cx="203" cy="147" r="116" fill="#D9F2E8"/><path d="M40 98L53 75L66 98L53 121Z" fill="#FFD675" stroke="#26324A" stroke-width="3"/><path d="M338 225L347 209L357 225L347 241Z" fill="#B5ACF6" stroke="#26324A" stroke-width="3"/><g transform="rotate(-8 201 147)"><rect x="112" y="45" width="178" height="220" rx="18" fill="#26324A"/><rect x="105" y="37" width="178" height="220" rx="18" fill="#FFFEF8" stroke="#26324A" stroke-width="3"/><path d="M128 65H204" stroke="#26324A" stroke-width="7" stroke-linecap="round"/><rect x="127" y="88" width="108" height="13" rx="5" fill="#DAD6FA"/><path d="M129 126H251M129 147H225" stroke="#C7CDDC" stroke-width="7" stroke-linecap="round"/><rect x="126" y="169" width="91" height="22" rx="6" fill="#3855D8"/><circle cx="150" cy="180" r="2.5" fill="white"/><circle cx="164" cy="180" r="2.5" fill="white"/><circle cx="178" cy="180" r="2.5" fill="white"/><circle cx="192" cy="180" r="2.5" fill="white"/><path d="M129 215H202" stroke="#C7CDDC" stroke-width="7" stroke-linecap="round"/></g><g transform="rotate(12 287 181)"><path d="M303 216L330 260" stroke="#26324A" stroke-width="22" stroke-linecap="round"/><path d="M303 214L328 255" stroke="#F2B44D" stroke-width="13" stroke-linecap="round"/><circle cx="276" cy="170" r="62" fill="#B7D6FF" stroke="#26324A" stroke-width="4"/><circle cx="276" cy="170" r="49" fill="#EFF6FF" stroke="#26324A" stroke-width="2.5"/><ellipse cx="260" cy="165" rx="4" ry="6" fill="#26324A"/><ellipse cx="287" cy="165" rx="4" ry="6" fill="#26324A"/><path d="M262 184Q275 195 289 182" stroke="#26324A" stroke-width="3" stroke-linecap="round"/><path d="M246 143Q255 131 270 128" stroke="white" stroke-width="7" stroke-linecap="round"/></g><path d="M322 51V71M312 61H332M74 221V237M66 229H82" stroke="#3855D8" stroke-width="4" stroke-linecap="round"/></svg>